<?xml version="1.0" encoding="UTF-8" standalone="no"?>
<svg
   xmlns:dc="http://purl.org/dc/elements/1.1/"
   xmlns:cc="http://creativecommons.org/ns#"
   xmlns:rdf="http://www.w3.org/1999/02/22-rdf-syntax-ns#"
   xmlns:svg="http://www.w3.org/2000/svg"
   xmlns="http://www.w3.org/2000/svg"
   xmlns:sodipodi="http://sodipodi.sourceforge.net/DTD/sodipodi-0.dtd"
   xmlns:inkscape="http://www.inkscape.org/namespaces/inkscape"
   version="1.1"
   id="Layer_1"
   x="0px"
   y="0px"
   width="64px"
   height="64px"
   viewBox="0 0 64 64"
   style="enable-background:new 0 0 64 64;"
   xml:space="preserve"
   sodipodi:docname="icon-m-record.svg"
   inkscape:version="1.0.1 (1.0.1+r74)"><metadata
   id="metadata19"><rdf:RDF><cc:Work
       rdf:about=""><dc:format>image/svg+xml</dc:format><dc:type
         rdf:resource="http://purl.org/dc/dcmitype/StillImage" /></cc:Work></rdf:RDF></metadata><defs
   id="defs17">
	
	

		
		
		
	</defs><sodipodi:namedview
   pagecolor="#ffffff"
   bordercolor="#666666"
   borderopacity="1"
   objecttolerance="10"
   gridtolerance="10"
   guidetolerance="10"
   inkscape:pageopacity="0"
   inkscape:pageshadow="2"
   inkscape:window-width="1920"
   inkscape:window-height="1055"
   id="namedview15"
   showgrid="false"
   inkscape:zoom="10.429825"
   inkscape:cx="41.144799"
   inkscape:cy="34.69333"
   inkscape:window-x="1920"
   inkscape:window-y="0"
   inkscape:window-maximized="1"
   inkscape:current-layer="Layer_1"
   inkscape:document-rotation="0" />
<rect
   y="0"
   x="0"
   height="64"
   width="64"
   style="opacity:0;fill:#ffffff"
   id="icon-m-add_3_" /><circle
   style="opacity:0.2;fill:#ffffff"
   cx="32"
   cy="32"
   r="24"
   id="circle3" />
<rect
   height="64"
   width="64"
   style="opacity:0;fill:#ffffff"
   id="icon-m-acknowledge_1_"
   x="0"
   y="0" /><g
   id="g849"
   transform="matrix(0.61951276,0,0,0.61951276,40.484175,30.235963)"
   style="stroke:#ffffff;stroke-width:1.16220366;stroke-miterlimit:4;stroke-dasharray:none"><path
     fill-rule="evenodd"
     clip-rule="evenodd"
     d="m -13.694915,-23.152542 c -4.9706,0 -9,4.0294 -9,9 V 1.8474576 c 0,4.9706 4.0294,9.0000004 9,9.0000004 4.9705997,0 8.9999997,-4.0294004 8.9999997,-9.0000004 V -14.152542 c 0,-4.9706 -4.0294,-9 -8.9999997,-9 z m 6.9999997,9 c 0,-3.866 -3.134,-7 -6.9999997,-7 -3.866,0 -7,3.134 -7,7 V 1.8474576 c 0,3.866 3.134,7 7,7 3.8659997,0 6.9999997,-3.134 6.9999997,-7 z"
     fill="#ffffff"
     id="path2"
     style="stroke:#ffffff;stroke-width:1.16220366;stroke-miterlimit:4;stroke-dasharray:none" /><path
     d="m -26.694915,-6.1525424 c 0.5523,0 1,0.4477 1,1 v 7 c 0,6.6274 5.3726,12.0000004 12,12.0000004 6.6273997,0 11.9999997,-5.3726004 11.9999997,-12.0000004 v -7 c 0,-0.5523 0.4477,-1 1.00000005,-1 0.5523,0 1,0.4477 1,1 v 7 c 0,7.3958 -5.73470005,13.4521004 -12.99999975,13.9648004 v 11.0352 h 8.9999997 c 0.5523,0 1,0.4477 1,1 0,0.5523 -0.4477,1 -1,1 H -23.694915 c -0.5523,0 -1,-0.4477 -1,-1 0,-0.5523 0.4477,-1 1,-1 h 9 v -11.0352 c -7.2653,-0.5127 -13,-6.5690004 -13,-13.9648004 v -7 c 0,-0.5523 0.4477,-1 1,-1 z"
     fill="#ffffff"
     id="path4"
     style="stroke:#ffffff;stroke-width:1.16220366;stroke-miterlimit:4;stroke-dasharray:none" /></g></svg>
